<svg xmlns="http://www.w3.org/2000/svg" xmlns:xlink="http://www.w3.org/1999/xlink" width="12" height="12" viewBox="0 0 12 12">
    <defs>
        <path id="a" d="M5 0c2.766 0 5 2.234 5 5s-2.234 5-5 5-5-2.234-5-5 2.234-5 5-5zm0 8a.5.5 0 1 0 0-1 .5.5 0 0 0 0 1zm1.539-3.597c-.074.097-.16.194-.245.279-.062.06-.136.12-.221.218a2.07 2.07 0 0 0-.233.23c-.061.06-.123.12-.16.169a.787.787 0 0 0-.146.52v.376h-.957v-.508c-.012-.17.013-.34.086-.509.098-.157.208-.303.355-.436l.613-.605a.746.746 0 0 0 .197-.521.71.71 0 0 0-.209-.509.756.756 0 0 0-.527-.206.74.74 0 0 0-.54.194.776.776 0 0 0-.245.521h-1.03c.038-.448.246-.872.59-1.163.355-.29.796-.436 1.262-.424.442-.024.883.122 1.226.4.32.267.478.654.478 1.138-.012.303-.11.605-.294.836z"/>
    </defs>
    <g fill="none" fill-rule="evenodd" transform="translate(1 1)">
        <use fill="#FFC400" xlink:href="#a"/>
        <path stroke="#FFF" d="M5-.5c3.043 0 5.5 2.457 5.5 5.5S8.043 10.5 5 10.5A5.494 5.494 0 0 1-.5 5C-.5 1.957 1.957-.5 5-.5zm0 8zm.033-1.805c-.002.053-.002.106.002.159l-.001.341h.5v-.5h-.957l.5.5v-.508a.626.626 0 0 1 .045-.31c.051-.072.133-.175.232-.265l.629-.62a1.253 1.253 0 0 0 .345-.876 1.211 1.211 0 0 0-.357-.865c-.23-.226-.551-.35-.88-.35-.299-.02-.627.1-.874.324a1.24 1.24 0 0 0-.359.577 1.295 1.295 0 0 0-.05.282l.5.032v-.5h-1.03v.5l.498.041a1.251 1.251 0 0 1 .174-.54 1.15 1.15 0 0 1 .24-.282c.252-.207.576-.315.926-.306a1.341 1.341 0 0 1 .924.288c.192.16.293.404.293.75a.917.917 0 0 1-.185.524l-.007.01a2.187 2.187 0 0 1-.197.223 4.47 4.47 0 0 0-.246.244c-.067.053-.16.144-.24.238l.105-.092c-.186.17-.229.215-.28.281-.152.2-.237.449-.25.7z"/>
    </g>
</svg>
