<svg xmlns="http://www.w3.org/2000/svg" width="42" height="26" viewBox="0 0 42 26">
    <g fill="#1E9FCF" fill-rule="evenodd">
        <path d="M24.704 22.857h7.123c1.2 0 2.173-1.027 2.173-2.286 0-1.263-.975-2.285-2.169-2.285-.597 0-1.081-.51-1.081-1.143v-6.857C30.75 4.605 26.385 0 21 0s-9.75 4.603-9.75 10.286v6.857c0 .632-.487 1.143-1.081 1.143C8.97 18.286 8 19.313 8 20.57c0 1.264.971 2.286 2.173 2.286h7.123C17.667 24.655 19.184 26 21 26c1.816 0 3.333-1.345 3.704-3.143zM4.61 9.985c-.026-1.344.523-2.657 1.53-3.654.387-.383 1.03-.41 1.435-.063.407.347.422.937.036 1.32-1.33 1.32-1.292 3.354.084 4.571.192.17.303.406.305.653a.92.92 0 0 1-.292.67c-.393.377-1.037.396-1.436.044-1.044-.921-1.642-2.194-1.662-3.54zm-.02 7.965c-.358.11-.749.034-1.017-.202-2.238-1.976-3.52-4.704-3.571-7.593-.053-2.887 1.131-5.707 3.296-7.849.387-.382 1.028-.41 1.434-.064.407.347.423.939.036 1.322-1.797 1.777-2.78 4.117-2.737 6.515.044 2.4 1.109 4.663 2.966 6.304.255.224.359.557.275.879a.998.998 0 0 1-.683.688zM37.39 9.985c-.02 1.347-.618 2.62-1.662 3.54-.4.353-1.043.334-1.436-.043a.92.92 0 0 1-.292-.67.883.883 0 0 1 .305-.653c1.376-1.217 1.415-3.25.084-4.57-.386-.384-.37-.974.036-1.321.404-.348 1.048-.32 1.434.063 1.008.997 1.557 2.31 1.53 3.654zm.02 7.965a.998.998 0 0 1-.682-.688.866.866 0 0 1 .275-.879c1.857-1.64 2.922-3.904 2.966-6.304.043-2.398-.94-4.738-2.737-6.515-.387-.383-.37-.975.036-1.322.406-.346 1.047-.318 1.434.064 2.165 2.142 3.35 4.962 3.296 7.849-.051 2.89-1.333 5.617-3.57 7.593-.269.236-.66.313-1.017.202z"/>
    </g>
</svg>
